<?xml version="1.0" standalone="no"?>
<!DOCTYPE svg PUBLIC "-//W3C//DTD SVG 20010904//EN"
 "http://www.w3.org/TR/2001/REC-SVG-20010904/DTD/svg10.dtd">
<svg version="1.0" xmlns="http://www.w3.org/2000/svg"
 width="385.000000pt" height="180.000000pt" viewBox="0 0 385.000000 180.000000"
 preserveAspectRatio="xMidYMid meet">
<metadata>
Created by potrace 1.16, written by Peter Selinger 2001-2019
</metadata>
<g transform="translate(0.000000,180.000000) scale(0.100000,-0.100000)"
fill="#000000" stroke="none">
<path d="M278 1445 c-20 -14 -42 -25 -48 -25 -21 0 -105 -48 -134 -76 -33 -33
-65 -98 -66 -132 0 -31 36 -99 59 -112 17 -9 21 -5 32 28 14 43 65 118 86 126
12 5 13 -17 8 -147 -3 -83 -8 -181 -11 -216 l-6 -63 -29 4 c-37 6 -42 -2 -34
-53 6 -33 12 -41 34 -45 l27 -6 0 -151 c-1 -84 3 -169 7 -189 7 -34 11 -38 40
-38 18 0 52 9 76 20 l44 20 -7 46 c-3 24 -9 100 -12 168 l-7 124 57 12 c32 6
59 10 61 8 2 -2 24 -62 48 -134 56 -163 86 -222 132 -262 31 -28 43 -32 91
-32 92 0 152 46 93 70 -40 17 -108 94 -141 161 -15 30 -45 100 -66 155 l-39
102 47 40 c88 76 139 218 120 336 -24 148 -136 245 -295 254 -53 3 -83 9 -88
18 -12 21 -38 17 -79 -11z m168 -140 c93 -27 144 -101 144 -208 0 -123 -69
-207 -198 -242 l-52 -13 0 87 c0 48 3 156 7 239 7 173 2 166 99 137z"/>
<path d="M3146 1234 c-35 -36 -38 -115 -4 -138 64 -45 158 17 158 103 0 62
-103 86 -154 35z"/>
<path d="M972 1039 c-99 -50 -162 -163 -170 -312 -7 -131 29 -210 112 -248
113 -51 235 3 281 125 26 67 2 107 -29 49 -65 -125 -217 -129 -242 -7 l-6 29
54 -3 c47 -3 60 1 103 30 123 82 162 258 74 332 -40 34 -115 36 -177 5z m113
-121 c0 -57 -4 -70 -25 -93 -25 -27 -75 -56 -119 -70 -22 -7 -23 -5 -16 27 18
80 110 212 144 206 13 -3 16 -17 16 -70z"/>
<path d="M1412 1029 c-139 -69 -182 -202 -92 -283 41 -36 64 -46 183 -71 105
-22 121 -55 45 -96 -23 -13 -93 -15 -126 -5 -23 8 -52 53 -52 81 0 24 -16 18
-54 -19 -81 -82 -43 -162 85 -181 58 -9 147 9 191 38 43 29 81 102 74 142 -8
41 -52 78 -122 105 -86 31 -124 59 -141 98 -19 46 -9 85 33 122 70 61 148 26
110 -49 -9 -17 -14 -36 -11 -41 3 -6 28 -10 55 -10 39 0 52 4 60 19 13 25 13
107 0 132 -31 57 -143 66 -238 18z"/>
<path d="M1884 1031 c-121 -70 -193 -267 -150 -414 31 -106 113 -165 216 -155
65 6 120 45 154 107 45 83 28 146 -19 72 -70 -113 -213 -112 -231 1 -6 34 -6
35 25 30 54 -8 97 7 146 50 111 98 130 274 35 323 -48 25 -118 19 -176 -14z
m132 -66 c9 -35 -3 -101 -23 -131 -16 -25 -80 -66 -120 -79 -19 -5 -23 -3 -23
17 0 61 105 218 145 218 8 0 17 -11 21 -25z"/>
<path d="M2663 1032 c-23 -9 -44 -19 -47 -22 -3 -3 1 -24 9 -46 8 -23 19 -90
25 -150 12 -118 46 -245 83 -309 22 -38 25 -40 70 -39 61 0 85 23 135 128 68
140 106 286 100 381 l-3 50 -45 3 c-27 2 -53 -3 -64 -11 -17 -12 -17 -18 -7
-50 14 -41 9 -92 -21 -212 -20 -84 -65 -195 -79 -195 -21 0 -42 129 -54 335
-5 86 -12 125 -23 138 -18 21 -25 21 -79 -1z"/>
<path d="M2435 1008 c-15 -11 -40 -39 -56 -61 l-29 -40 0 56 c0 54 -1 57 -25
57 -14 0 -43 -9 -64 -20 l-38 -19 -8 -204 c-4 -112 -4 -225 0 -251 9 -60 34
-75 87 -53 l36 15 -5 84 c-9 133 33 275 92 314 27 18 28 18 47 -6 15 -19 18
-33 14 -62 -4 -21 -3 -38 0 -38 23 0 76 48 94 85 18 37 20 50 11 81 -22 81
-95 110 -156 62z"/>
<path d="M3553 1009 c-70 -35 -130 -95 -165 -167 -28 -57 -33 -79 -36 -152 -3
-73 0 -91 20 -129 29 -57 64 -82 119 -88 54 -5 112 25 146 76 19 28 23 31 23
13 0 -77 91 -121 142 -70 20 20 20 23 6 26 -30 6 -36 51 -27 222 4 91 8 193 8
228 1 59 0 62 -23 62 -36 0 -72 -16 -79 -35 -4 -9 -12 -69 -18 -133 -13 -128
-29 -179 -79 -235 -58 -67 -115 -38 -114 57 2 127 49 195 192 282 6 4 -20 48
-32 56 -18 12 -39 9 -83 -13z"/>
<path d="M3160 1007 l-35 -12 0 -240 c0 -132 3 -252 8 -267 8 -31 15 -33 70
-17 l37 10 0 62 c0 34 7 134 15 222 8 88 15 181 15 208 l0 47 -37 -1 c-21 0
-54 -5 -73 -12z"/>
</g>
</svg>
